#!OML:ASF H:\BreakDance\Project 1\Capture day 1\Session 1\Male.ASF
:FULLY-SPECIFIED
:DEGREES
1284
root -6.18855 16.3494 -3.22005 -203.94 263.656 204.835
lowerback -5.60631 -1.14668 -6.54087
upperback 1.77284 -1.0704 0.655554
thorax 5.14174 -0.751094 4.25435
lowerneck -6.01631 3.27541 -6.92585
upperneck 200.279 -186.206 -186.778
head 187.274 -181.625 -180.592
rclavicle -9.97651e-015 1.78906e-014
rhumerus -25.3221 6.27877 -83.8498
rradius 43.7079
rwrist 4.78821
rhand -23.4187 -399.403
rfingers 7.12502
rthumb 3.03878 -429.361
lclavicle -9.97651e-015 1.78906e-014
lhumerus -26.6654 9.99395 83.5592
lradius 50.4286
lwrist -9.77393
lhand -26.5698 333.643
lfingers 7.12502
lthumb -0.00454785 3.62307
rfemur -11.4268 -0.901399 7.73669
rtibia 44.0556
rfoot -34.3945 -22.6011
rtoes 0.11022
lfemur -7.95201 -1.70642 -10.8444
ltibia 30.0712
lfoot -25.0694 19.6261
ltoes -38.2975
1285
root -6.19412 16.3473 -3.21725 -204.481 263.757 205.337
lowerback -5.71987 -1.13964 -6.48201
upperback 1.80906 -1.0564 0.660455
thorax 5.24153 -0.746469 4.22623
lowerneck -6.10027 3.28247 -6.9625
upperneck 200.374 -186.224 -186.706
head 187.316 -181.629 -180.56
rclavicle 7.00095e-015 1.59028e-015
rhumerus -25.3241 6.26022 -83.8685
rradius 43.703
rwrist 4.75423
rhand -23.5096 -399.325
rfingers 7.12502
rthumb 2.95099 -429.284
lclavicle 7.00095e-015 1.59028e-015
lhumerus -26.5944 10.1037 83.6326
lradius 50.3885
lwrist -9.8125
lhand -26.4951 333.562
lfingers 7.12502
lthumb 0.0675315 3.54127
rfemur -11.3882 -0.880824 7.71341
rtibia 44.0549
rfoot -34.3646 -22.5657
rtoes 0.0262948
lfemur -7.87981 -1.57983 -10.8603
ltibia 30.1141
lfoot -25.1116 19.6254
ltoes -38.2515
1286
root -6.20053 16.3453 -3.21396 -205.193 263.841 206.016
lowerback -5.86899 -1.13774 -6.42609
upperback 1.84822 -1.04589 0.64983
thorax 5.36496 -0.744137 4.18269
lowerneck -6.14315 3.28491 -6.99413
upperneck 200.435 -186.229 -186.642
head 187.341 -181.63 -180.533
rclavicle -1.52381e-014 9.93923e-016
rhumerus -25.3458 6.24457 -83.8992
rradius 43.7144
rwrist 4.705
rhand -23.5753 -399.213
rfingers 7.12502
rthumb 2.88756 -429.173
lclavicle -1.52381e-014 9.93923e-016
lhumerus -26.541 10.196 83.6969
lradius 50.3682
lwrist -9.85182
lhand -26.4213 333.504
lfingers 7.12502
lthumb 0.138888 3.48382
rfemur -11.3464 -0.876199 7.65753
rtibia 44.0485
rfoot -34.3319 -22.5168
rtoes -0.106127
lfemur -7.81166 -1.45605 -10.9053
ltibia 30.1569
lfoot -25.1791 19.6213
ltoes -38.1526
1287
root -6.20718 16.3436 -3.21038 -206.01 263.911 206.81
lowerback -6.04709 -1.14518 -6.37711
upperback 1.891 -1.04495 0.631709
thorax 5.51004 -0.747317 4.13384
lowerneck -6.18984 3.2881 -7.0263
upperneck 200.492 -186.235 -186.581
head 187.365 -181.631 -180.506
rclavicle 1.00759e-014 2.5842e-015
rhumerus -25.3664 6.25175 -83.9371
rradius 43.728
rwrist 4.64189
rhand -23.5836 -399.101
rfingers 7.12502
rthumb 2.87952 -429.062
lclavicle 1.00759e-014 2.5842e-015
lhumerus -26.4929 10.2893 83.7528
lradius 50.3581
lwrist -9.88885
lhand -26.3583 333.457
lfingers 7.12502
lthumb 0.19966 3.43636
rfemur -11.3105 -0.872126 7.5824
rtibia 44.0418
rfoot -34.3016 -22.4668
rtoes -0.268448
lfemur -7.75159 -1.33715 -10.9689
ltibia 30.1945
lfoot -25.2723 19.6023
ltoes -38.0074
1288
root -6.21322 16.342 -3.20683 -206.822 263.971 207.61
lowerback -6.23614 -1.16251 -6.33422
upperback 1.93549 -1.05617 0.615417
thorax 5.66497 -0.756987 4.08882
lowerneck -6.2753 3.29489 -7.06302
upperneck 200.574 -186.253 -186.518
head 187.405 -181.635 -180.477
rclavicle 1.75614e-014 2.98177e-015
rhumerus -25.3685 6.28635 -83.9758
rradius 43.7341
rwrist 4.56722
rhand -23.5345 -399.002
rfingers 7.12502
rthumb 2.9269 -428.962
lclavicle 1.75614e-014 2.98177e-015
lhumerus -26.4442 10.3879 83.8042
lradius 50.3519
lwrist -9.9145
lhand -26.3164 333.42
lfingers 7.12502
lthumb 0.24016 3.39925
rfemur -11.2882 -0.851837 7.50847
rtibia 44.0382
rfoot -34.2795 -22.4307
rtoes -0.436327
lfemur -7.70441 -1.22407 -11.0346
ltibia 30.2251
lfoot -25.3894 19.5659
ltoes -37.8351
